<?xml version="1.0" standalone="no"?>
<!DOCTYPE svg PUBLIC "-//W3C//DTD SVG 1.1//EN" "http://www.w3.org/Graphics/SVG/1.1/DTD/svg11.dtd" >
<svg xmlns="http://www.w3.org/2000/svg">
<metadata>
Created by FontPrep 20130207 at Sun Jan 31 16:27:39 2016
 By Phil Helm
Copyright Negociator 2011
</metadata>
<defs>
<font id="aabcd2513bcaccfd831c4258ab0fffa9" horiz-adv-x='1024' >
  <font-face 
    font-family="5x5-Pixel"
    font-weight="400"
    font-stretch="normal"
    units-per-em="2048"
    panose-1="0 0 4 0 0 0 0 0 0 0"
    ascent="1638"
    descent="-410"
    x-height="1280"
    cap-height="1280"
    bbox="0 0 1280 1280"
    underline-thickness="102"
    underline-position="252"
    unicode-range="U+000D-007A"
  />
<missing-glyph horiz-adv-x="0" 
d="M0 0v1280h1280v-1280h-1280zM842 894v202h-202q-86 0 -145 -60t-59 -142h406zM640 656v204h-204v-204h204zM842 418v204h-406v-204h406zM640 180v204h-204v-204h204z" />
    <glyph glyph-name=".notdef" horiz-adv-x="0" 
d="M0 0v1280h1280v-1280h-1280zM842 894v202h-202q-86 0 -145 -60t-59 -142h406zM640 656v204h-204v-204h204zM842 418v204h-406v-204h406zM640 180v204h-204v-204h204z" />
    <glyph glyph-name="glyph1" horiz-adv-x="0" 
 />
    <glyph glyph-name="glyph1" horiz-adv-x="0" 
 />
    <glyph glyph-name="uni000D" unicode="&#xd;" horiz-adv-x="0" 
 />
    <glyph glyph-name="space" unicode=" " horiz-adv-x="256" 
 />
    <glyph glyph-name="zero" unicode="0" 
d="M0 256v768h256v256h768v-256h-768v-768h-256zM1024 1024h256v-768h-256v768zM1024 256v-256h-768v256h768z" />
    <glyph glyph-name="one" unicode="1" horiz-adv-x="768" 
d="M256 0v1024h-256v256h512v-1280h-256z" />
    <glyph glyph-name="two" unicode="2" horiz-adv-x="1280" 
d="M0 768v256h256v256h512v-256h-512v-256h-256zM0 0v256h256v256h256v256h256v256h256v-256h-256v-256h-256v-256h512v-256h-1024z" />
    <glyph glyph-name="three" unicode="3" horiz-adv-x="1280" 
d="M0 0v256h768v256h-512v256h512v256h-768v256h1024v-1280h-1024z" />
    <glyph glyph-name="four" unicode="4" horiz-adv-x="1280" 
d="M768 0v512h-768v768h256v-512h512v512h256v-1280h-256z" />
    <glyph glyph-name="five" unicode="5" horiz-adv-x="1280" 
d="M0 0v256h768v256h-768v512h256v256h768v-256h-768v-256h768v-768h-1024z" />
    <glyph glyph-name="six" unicode="6" horiz-adv-x="1280" 
d="M0 0v1280h1024v-256h-768v-256h768v-768h-1024zM768 256v256h-512v-256h512z" />
    <glyph glyph-name="seven" unicode="7" horiz-adv-x="1280" 
d="M0 0v256h256v256h256v256h256v256h-768v256h1024v-512h-256v-256h-256v-256h-256v-256h-256z" />
    <glyph glyph-name="eight" unicode="8" horiz-adv-x="1280" 
d="M0 768v512h1024v-512h-256v256h-512v-256h-256zM0 0v512h256v256h512v-256h-512v-256h512v256h256v-512h-1024z" />
    <glyph glyph-name="nine" unicode="9" horiz-adv-x="1280" 
d="M0 0v256h768v256h-768v768h1024v-1280h-1024zM768 768v256h-512v-256h512z" />
    <glyph glyph-name="A" unicode="A" 
d="M0 0v1280h1280v-1280h-256v512h-768v-512h-256zM1024 768v256h-768v-256h768z" />
    <glyph glyph-name="B" unicode="B" 
d="M0 0v1280h1024v-256h256v-768h-256v-256h-1024zM1024 256v256h-768v-256h768zM1024 1024h-768v-256h768v256z" />
    <glyph glyph-name="C" unicode="C" 
d="M0 0v1280h1280v-256h-1024v-768h1024v-256h-1280z" />
    <glyph glyph-name="D" unicode="D" 
d="M0 0v1280h1024v-256h-768v-768h768v-256h-1024zM1024 1024h256v-768h-256v768z" />
    <glyph glyph-name="E" unicode="E" 
d="M0 0v1280h1280v-256h-1024v-256h768v-256h-768v-256h1024v-256h-1280z" />
    <glyph glyph-name="F" unicode="F" 
d="M0 0v1280h1280v-256h-1024v-256h768v-256h-768v-512h-256z" />
    <glyph glyph-name="G" unicode="G" 
d="M0 0v1280h1280v-256h-1024v-768h768v256h-512v256h768v-768h-1280z" />
    <glyph glyph-name="H" unicode="H" 
d="M0 0v1280h256v-512h768v512h256v-1280h-256v512h-768v-512h-256z" />
    <glyph glyph-name="I" unicode="I" 
d="M0 0v256h512v768h-512v256h1280v-256h-512v-768h512v-256h-1280z" />
    <glyph glyph-name="J" unicode="J" horiz-adv-x="1280" 
d="M0 0v512h256v-256h256v768h-512v256h1024v-256h-256v-1024h-768z" />
    <glyph glyph-name="K" unicode="K" horiz-adv-x="1280" 
d="M0 0v1280h256v-512h256v-256h-256v-512h-256zM768 1024v256h256v-256h-256zM768 1024v-256h-256v256h256zM512 512h256v-256h-256v256zM768 256h256v-256h-256v256z" />
    <glyph glyph-name="L" unicode="L" horiz-adv-x="1280" 
d="M0 0v1280h256v-1024h768v-256h-1024z" />
    <glyph glyph-name="M" unicode="M" 
d="M1024 0v768h-256v256h256v256h256v-1280h-256zM0 0v1280h256v-256h256v-256h-256v-768h-256zM768 768v-256h-256v256h256z" />
    <glyph glyph-name="N" unicode="N" 
d="M1024 0v256h-256v256h256v768h256v-1280h-256zM0 0v1280h256v-256h256v-256h-256v-768h-256zM768 512h-256v256h256v-256z" />
    <glyph glyph-name="O" unicode="O" 
d="M0 0v1280h1280v-1280h-1280zM1024 256v768h-768v-768h768z" />
    <glyph glyph-name="P" unicode="P" 
d="M0 0v1280h1280v-768h-1024v-512h-256zM1024 768v256h-768v-256h768z" />
    <glyph glyph-name="Q" unicode="Q" 
d="M0 0v1280h1280v-1280h-1280zM768 256v256h256v512h-768v-768h512z" />
    <glyph glyph-name="R" unicode="R" 
d="M0 0v1280h1280v-768h-256v-256h-256v256h-512v-512h-256zM1024 768v256h-768v-256h768zM1024 256h256v-256h-256v256z" />
    <glyph glyph-name="S" unicode="S" 
d="M0 0v256h1024v256h-1024v768h1280v-256h-1024v-256h1024v-768h-1280z" />
    <glyph glyph-name="T" unicode="T" 
d="M512 0v1024h-512v256h1280v-256h-512v-1024h-256z" />
    <glyph glyph-name="U" unicode="U" 
d="M0 0v1280h256v-1024h768v1024h256v-1280h-1280z" />
    <glyph glyph-name="V" unicode="V" 
d="M0 768v512h256v-512h-256zM1024 768v512h256v-512h-256zM1024 768v-512h-256v512h256zM256 768h256v-512h-256v512zM768 256v-256h-256v256h256z" />
    <glyph glyph-name="W" unicode="W" 
d="M0 0v1280h256v-1024h256v-256h-512zM768 256h256v1024h256v-1280h-512v256zM768 256h-256v256h256v-256z" />
    <glyph glyph-name="X" unicode="X" 
d="M0 1024v256h256v-256h-256zM0 0v256h256v256h256v256h-256v256h256v-256h256v256h256v256h256v-256h-256v-256h-256v-256h-256v-256h-256v-256h-256zM768 512h256v-256h-256v256zM1024 256h256v-256h-256v256z" />
    <glyph glyph-name="Y" unicode="Y" 
d="M0 1024v256h256v-256h-256zM1024 1024v256h256v-256h-256zM1024 1024v-256h-256v256h256zM256 1024h256v-256h-256v256zM768 768v-768h-256v768h256z" />
    <glyph glyph-name="Z" unicode="Z" 
d="M0 0v256h256v256h256v256h256v256h-768v256h1280v-256h-256v-256h-256v-256h-256v-256h768v-256h-1280z" />
    <glyph glyph-name="a" unicode="a" 
d="M0 0v1280h1280v-1280h-256v512h-768v-512h-256zM1024 768v256h-768v-256h768z" />
    <glyph glyph-name="b" unicode="b" 
d="M0 0v1280h1024v-256h256v-768h-256v-256h-1024zM1024 256v256h-768v-256h768zM1024 1024h-768v-256h768v256z" />
    <glyph glyph-name="c" unicode="c" 
d="M0 0v1280h1280v-256h-1024v-768h1024v-256h-1280z" />
    <glyph glyph-name="d" unicode="d" 
d="M0 0v1280h1024v-256h-768v-768h768v-256h-1024zM1024 1024h256v-768h-256v768z" />
    <glyph glyph-name="e" unicode="e" 
d="M0 0v1280h1280v-256h-1024v-256h768v-256h-768v-256h1024v-256h-1280z" />
    <glyph glyph-name="f" unicode="f" 
d="M0 0v1280h1280v-256h-1024v-256h768v-256h-768v-512h-256z" />
    <glyph glyph-name="g" unicode="g" 
d="M0 0v1280h1280v-256h-1024v-768h768v256h-512v256h768v-768h-1280z" />
    <glyph glyph-name="h" unicode="h" 
d="M0 0v1280h256v-512h768v512h256v-1280h-256v512h-768v-512h-256z" />
    <glyph glyph-name="i" unicode="i" 
d="M0 0v256h512v768h-512v256h1280v-256h-512v-768h512v-256h-1280z" />
    <glyph glyph-name="j" unicode="j" horiz-adv-x="1280" 
d="M0 0v512h256v-256h256v768h-512v256h1024v-256h-256v-1024h-768z" />
    <glyph glyph-name="k" unicode="k" horiz-adv-x="1280" 
d="M0 0v1280h256v-512h256v-256h-256v-512h-256zM768 1024v256h256v-256h-256zM768 1024v-256h-256v256h256zM512 512h256v-256h-256v256zM768 256h256v-256h-256v256z" />
    <glyph glyph-name="l" unicode="l" horiz-adv-x="1280" 
d="M0 0v1280h256v-1024h768v-256h-1024z" />
    <glyph glyph-name="m" unicode="m" 
d="M1024 0v768h-256v256h256v256h256v-1280h-256zM0 0v1280h256v-256h256v-256h-256v-768h-256zM768 768v-256h-256v256h256z" />
    <glyph glyph-name="n" unicode="n" 
d="M1024 0v256h-256v256h256v768h256v-1280h-256zM0 0v1280h256v-256h256v-256h-256v-768h-256zM768 512h-256v256h256v-256z" />
    <glyph glyph-name="o" unicode="o" 
d="M0 0v1280h1280v-1280h-1280zM1024 256v768h-768v-768h768z" />
    <glyph glyph-name="p" unicode="p" 
d="M0 0v1280h1280v-768h-1024v-512h-256zM1024 768v256h-768v-256h768z" />
    <glyph glyph-name="q" unicode="q" 
d="M0 0v1280h1280v-1280h-1280zM768 256v256h256v512h-768v-768h512z" />
    <glyph glyph-name="r" unicode="r" 
d="M0 0v1280h1280v-768h-256v-256h-256v256h-512v-512h-256zM1024 768v256h-768v-256h768zM1024 256h256v-256h-256v256z" />
    <glyph glyph-name="s" unicode="s" 
d="M0 0v256h1024v256h-1024v768h1280v-256h-1024v-256h1024v-768h-1280z" />
    <glyph glyph-name="t" unicode="t" 
d="M512 0v1024h-512v256h1280v-256h-512v-1024h-256z" />
    <glyph glyph-name="u" unicode="u" 
d="M0 0v1280h256v-1024h768v1024h256v-1280h-1280z" />
    <glyph glyph-name="v" unicode="v" 
d="M0 768v512h256v-512h-256zM1024 768v512h256v-512h-256zM1024 768v-512h-256v512h256zM256 768h256v-512h-256v512zM768 256v-256h-256v256h256z" />
    <glyph glyph-name="w" unicode="w" 
d="M1024 0v256h-256v256h256v768h256v-1280h-256zM0 0v1280h256v-768h256v-256h-256v-256h-256zM768 512h-256v256h256v-256z" />
    <glyph glyph-name="x" unicode="x" 
d="M0 1024v256h256v-256h-256zM0 0v256h256v256h256v256h-256v256h256v-256h256v256h256v256h256v-256h-256v-256h-256v-256h-256v-256h-256v-256h-256zM768 512h256v-256h-256v256zM1024 256h256v-256h-256v256z" />
    <glyph glyph-name="y" unicode="y" 
d="M0 1024v256h256v-256h-256zM1024 1024v256h256v-256h-256zM1024 1024v-256h-256v256h256zM256 1024h256v-256h-256v256zM768 768v-768h-256v768h256z" />
    <glyph glyph-name="z" unicode="z" 
d="M0 0v256h256v256h256v256h256v256h-768v256h1280v-256h-256v-256h-256v-256h-256v-256h768v-256h-1280z" />
  </font>
</defs>
</svg>
